HIERARCHY
ROOT Hips
{
	OFFSET 0.000000 0.000000 0.000000
	CHANNELS 6 Xposition Yposition Zposition Xrotation Yrotation Zrotation
	JOINT LeftUpLeg_virtual
	{
		OFFSET 0.000000 0.000000 0.000000
		CHANNELS 3 Xrotation Yrotation Zrotation
		JOINT LeftUpLeg
		{
			OFFSET 15.427100 -6.655098 0.678600
			CHANNELS 3 Xrotation Yrotation Zrotation
			JOINT LeftLeg
			{
				OFFSET 4.081073 -39.591068 13.024000
				CHANNELS 3 Xrotation Yrotation Zrotation
				JOINT LeftFoot
				{
					OFFSET -4.081074 -37.707932 -15.979700
					CHANNELS 3 Xrotation Yrotation Zrotation
					JOINT LeftToeBase
					{
						OFFSET 5.346399 -15.068900 20.645000
						CHANNELS 3 Xrotation Yrotation Zrotation
						JOINT LeftToe_End
						{
							OFFSET 2.754700 0.931300 11.300900
							CHANNELS 3 Xrotation Yrotation Zrotation
							End Site
							{
								OFFSET 0 0 0
							}
						}
					}
				}
			}
		}
	}
	JOINT RightUpLeg_virtual
	{
		OFFSET 0.000000 0.000000 0.000000
		CHANNELS 3 Xrotation Yrotation Zrotation
		JOINT RightUpLeg
		{
			OFFSET -15.569500 -6.655098 0.678600
			CHANNELS 3 Xrotation Yrotation Zrotation
			JOINT RightLeg
			{
				OFFSET -4.081825 -39.591045 13.023800
				CHANNELS 3 Xrotation Yrotation Zrotation
				JOINT RightFoot
				{
					OFFSET 4.081824 -37.707954 -15.979600
					CHANNELS 3 Xrotation Yrotation Zrotation
					JOINT RightToeBase
					{
						OFFSET -5.346400 -15.068900 20.645000
						CHANNELS 3 Xrotation Yrotation Zrotation
						JOINT RightToe_End
						{
							OFFSET -2.754700 0.931300 11.300900
							CHANNELS 3 Xrotation Yrotation Zrotation
							End Site
							{
								OFFSET 0 0 0
							}
						}
					}
				}
			}
		}
	}
	JOINT Spine_virtual
	{
		OFFSET 0.000000 0.000000 0.000000
		CHANNELS 3 Xrotation Yrotation Zrotation
		JOINT Spine
		{
			OFFSET -0.279200 12.230698 -2.892100
			CHANNELS 3 Xrotation Yrotation Zrotation
			JOINT Spine1
			{
				OFFSET -0.232667 10.192268 -1.242267
				CHANNELS 3 Xrotation Yrotation Zrotation
				JOINT Spine1_split
				{
					OFFSET -0.232667 10.192268 -1.242267
					CHANNELS 3 Xrotation Yrotation Zrotation
					JOINT Spine2
					{
						OFFSET -0.232667 10.192268 -1.242267
						CHANNELS 3 Xrotation Yrotation Zrotation
						JOINT Neck_virtual
						{
							OFFSET 0.000000 0.000000 0.000000
							CHANNELS 3 Xrotation Yrotation Zrotation
							JOINT Neck
							{
								OFFSET -0.418800 17.814194 8.416900
								CHANNELS 3 Xrotation Yrotation Zrotation
								JOINT Head
								{
									OFFSET 0.000000 7.031097 3.806800
									CHANNELS 3 Xrotation Yrotation Zrotation
									JOINT HeadTop_End
									{
										OFFSET 0.000000 24.646606 12.978600
										CHANNELS 3 Xrotation Yrotation Zrotation
										End Site
										{
											OFFSET 0 0 0
										}
									}
								}
							}
						}
						JOINT LeftShoulder_virtual
						{
							OFFSET 0.000000 0.000000 0.000000
							CHANNELS 3 Xrotation Yrotation Zrotation
							JOINT LeftShoulder
							{
								OFFSET 8.476499 7.247704 -3.868750
								CHANNELS 3 Xrotation Yrotation Zrotation
								JOINT LeftShoulder_split
								{
									OFFSET 8.476499 7.247704 -3.868750
									CHANNELS 3 Xrotation Yrotation Zrotation
									JOINT LeftArm
									{
										OFFSET 9.308998 -2.777710 0.208600
										CHANNELS 3 Xrotation Yrotation Zrotation
										JOINT LeftForeArm
										{
											OFFSET 29.972298 0.000000 0.000000
											CHANNELS 3 Xrotation Yrotation Zrotation
											JOINT LeftHand
											{
												OFFSET 26.026505 0.000000 0.000000
												CHANNELS 3 Xrotation Yrotation Zrotation
												End Site
												{
													OFFSET 0 0 0
												}
											}
										}
									}
								}
							}
						}
						JOINT RightShoulder_virtual
						{
							OFFSET 0.000000 0.000000 0.000000
							CHANNELS 3 Xrotation Yrotation Zrotation
							JOINT RightShoulder
							{
								OFFSET -7.570500 7.247704 -3.868750
								CHANNELS 3 Xrotation Yrotation Zrotation
								JOINT RightShoulder_split
								{
									OFFSET -7.570500 7.247704 -3.868750
									CHANNELS 3 Xrotation Yrotation Zrotation
									JOINT RightArm
									{
										OFFSET -9.308998 -2.777710 0.208500
										CHANNELS 3 Xrotation Yrotation Zrotation
										JOINT RightForeArm
										{
											OFFSET -29.972300 0.000000 0.000000
											CHANNELS 3 Xrotation Yrotation Zrotation
											JOINT RightHand
											{
												OFFSET -26.026505 0.000000 0.000000
												CHANNELS 3 Xrotation Yrotation Zrotation
												End Site
												{
													OFFSET 0 0 0
												}
											}
										}
									}
								}
							}
						}
					}
				}
			}
		}
	}
}
MOTION
Frames: 9
Frame Time: 0.03333333
2.287504 72.987007 1.912388 0.000000 0.000000 0.000000 26.549275 -57.965022 26.695484 -56.233572 22.661319 34.522406 44.862882 -18.698271 -4.270722 -5.892452 4.185318 -12.537638 -4.353032 -6.142157 1.526130 0.000000 0.000000 0.000000 21.210347 -53.284594 23.182518 -32.653567 7.423349 -39.086960 52.668364 3.267625 -3.830555 -31.822589 3.955761 25.615460 -3.843324 2.470194 -0.039637 0.000000 0.000000 0.000000 10.273562 -41.798190 15.410580 4.150852 11.245950 0.703610 6.423574 9.070583 -4.418390 1.948455 -2.859709 2.382601 0.000000 0.000000 0.000000 -9.890369 8.882926 -2.868670 -21.425001 -9.625781 2.762603 3.989205 6.976972 -7.943146 0.000000 0.000000 0.000000 -7.703905 8.169804 -0.741730 1.966389 -24.937968 3.930251 -2.073265 1.724985 -3.932791 3.930803 20.234104 -60.365806 -35.248106 -59.677152 -34.233294 0.000000 0.000000 0.000000 -9.497470 8.598231 -1.971806 -0.875092 6.509935 2.826153 8.462888 4.414121 11.360196 14.096418 -9.563304 43.703317 -40.119295 54.342225 37.607281 0.000000 0.000000 0.000000 
1.095371 72.728172 1.536636 0.000000 0.000000 0.000000 28.881236 -58.012232 28.338248 -56.332337 22.872516 34.249512 44.743767 -19.764611 -3.560152 -6.264430 3.401638 -13.210200 -4.448131 -6.319372 2.324773 0.000000 0.000000 0.000000 23.430310 -52.633950 24.510151 -33.652663 7.900852 -38.226328 54.581968 3.833500 -4.548826 -31.364505 3.195770 27.604066 -5.264770 2.335422 -0.035806 0.000000 0.000000 0.000000 12.771201 -42.614950 17.586665 4.653919 9.613592 0.992354 7.123628 7.570192 -4.048267 4.090215 -5.164327 3.865140 0.000000 0.000000 0.000000 -9.079916 7.719942 -2.466479 -21.258448 -8.328097 3.599779 3.359462 7.173920 -6.042190 0.000000 0.000000 0.000000 -7.335640 6.814726 -0.762118 1.750898 -24.283590 3.309849 -0.939189 -3.311159 -2.748062 8.115635 23.371415 -58.647624 -29.690935 -54.873607 -28.632988 0.000000 0.000000 0.000000 -9.616755 7.332508 -1.684880 -0.653241 6.649730 4.078726 6.731434 2.466385 10.900039 12.680448 -12.638083 44.844099 -48.346941 59.539182 45.293074 0.000000 0.000000 0.000000 
-1.153597 72.529877 1.406158 0.000000 0.000000 0.000000 32.021518 -57.036202 30.954701 -56.584388 22.740932 33.571565 43.919482 -20.428647 -2.983798 -6.960349 3.445081 -14.144703 -4.992714 -6.463212 3.071015 0.000000 0.000000 0.000000 27.001538 -51.558223 27.304118 -34.923222 8.615791 -37.290268 56.160783 3.705332 -5.561858 -32.449966 1.280081 28.240973 -3.428075 2.256133 0.350521 0.000000 0.000000 0.000000 17.575214 -42.934491 21.488499 5.627203 6.626296 1.587157 8.349910 4.165097 -3.663002 4.006478 -4.586157 4.307580 0.000000 0.000000 0.000000 -7.767766 4.642982 -2.293410 -20.188603 -6.897592 5.401542 1.088968 7.168742 -2.459956 0.000000 0.000000 0.000000 -6.175068 3.640595 -1.222184 1.967735 -22.650572 3.337229 0.861315 -8.944226 -0.517283 10.738089 27.576433 -56.033100 -21.613954 -48.567471 -20.776792 0.000000 0.000000 0.000000 -8.849751 4.051667 -1.946078 -0.705599 6.168845 6.109052 6.984017 2.368144 11.213332 8.550203 -15.294844 43.726885 -72.344715 65.853638 69.345162 0.000000 0.000000 0.000000 
-3.954984 72.468399 1.533108 0.000000 0.000000 0.000000 35.348804 -55.095260 33.955012 -56.613573 22.459889 32.464166 42.436577 -20.404796 -2.660527 -7.675744 4.315426 -14.809006 -5.975356 -6.531279 3.462200 0.000000 0.000000 0.000000 30.875358 -49.931903 30.790547 -36.499144 9.387140 -36.503324 57.146523 3.089630 -6.790895 -34.369649 -1.357410 28.164802 0.603359 2.324457 0.928009 0.000000 0.000000 0.000000 23.829427 -42.278154 26.203297 7.191142 2.839570 2.253577 10.129631 -0.314448 -3.267233 1.976047 -2.555785 3.793407 0.000000 0.000000 0.000000 -5.939086 0.345702 -2.369253 -18.482321 -5.282424 7.133622 -2.459044 6.369340 2.023800 0.000000 0.000000 0.000000 -4.103982 -0.674608 -1.897450 2.652844 -20.735022 4.002253 2.027037 -12.958310 1.128338 9.734331 31.840081 -51.436205 -13.875265 -41.233575 -13.324036 0.000000 0.000000 0.000000 -6.988350 -0.396086 -2.461797 -0.843369 5.597115 8.946403 8.503882 3.424205 11.534487 3.069623 -16.363393 40.027938 -99.735303 66.233840 97.334301 0.000000 0.000000 0.000000 
-6.869907 72.617172 1.932068 0.000000 0.000000 0.000000 38.251102 -52.376086 36.681507 -56.347654 22.234750 31.148613 40.618196 -19.910707 -2.504849 -8.262534 5.696478 -15.173083 -6.765334 -6.513784 3.320952 0.000000 0.000000 0.000000 34.498449 -47.598796 34.276457 -37.962946 9.989403 -36.082093 57.218605 2.570174 -8.258605 -36.530304 -4.045159 28.465587 3.607668 2.514574 1.477400 0.000000 0.000000 0.000000 29.966536 -40.934143 30.686961 9.297567 -1.037278 2.833071 12.669942 -4.784180 -2.830217 0.481319 -0.930121 2.297955 0.000000 0.000000 0.000000 -3.530843 -4.152262 -2.595675 -16.307667 -3.610047 7.914499 -6.310317 4.684469 6.227369 0.000000 0.000000 0.000000 -1.108301 -5.086111 -2.529355 3.653577 -19.421448 4.990976 3.206853 -14.679291 2.600777 3.923656 34.536831 -44.435961 -7.391760 -33.229977 -7.272497 0.000000 0.000000 0.000000 -3.886606 -4.862956 -2.926668 -0.960093 5.355891 12.494767 10.294265 4.800675 11.372730 -2.524456 -15.397463 34.820919 -110.439992 64.660704 109.002074 0.000000 0.000000 0.000000 
-9.382232 72.834686 2.396942 0.000000 0.000000 0.000000 40.372200 -49.370031 38.773707 -55.642945 22.267776 29.779577 39.065810 -19.341175 -2.301224 -9.012189 7.102849 -15.324873 -6.810883 -6.448931 2.847989 0.000000 0.000000 0.000000 37.259467 -45.125311 37.246070 -38.726162 10.037178 -36.148264 56.324250 2.287975 -9.866253 -38.713229 -6.267415 29.212623 4.394922 2.744437 1.924025 0.000000 0.000000 0.000000 34.670464 -38.965560 33.965394 11.410646 -4.272390 3.111131 16.111773 -8.289536 -2.356554 -0.606518 0.592973 0.475905 0.000000 0.000000 0.000000 -0.316990 -7.822568 -2.775580 -14.184455 -2.046955 7.022848 -9.517228 2.169118 9.251207 0.000000 0.000000 0.000000 2.838149 -8.595471 -2.932866 4.790445 -19.123840 5.925399 3.152885 -14.782619 2.109727 -6.471946 33.107894 -35.614269 -2.660975 -25.237156 -2.973155 0.000000 0.000000 0.000000 0.340601 -8.321418 -3.118369 -1.073115 6.164515 16.487426 10.957479 4.567489 11.748694 -6.876763 -12.536440 29.330007 -105.035141 65.576619 104.593555 0.000000 0.000000 0.000000 
-11.274398 73.086601 2.916996 0.000000 0.000000 0.000000 41.125846 -46.349309 39.808361 -54.418504 22.784736 28.459638 37.955621 -19.209332 -1.979194 -10.214734 8.156022 -15.691248 -6.076070 -6.381709 2.232545 0.000000 0.000000 0.000000 38.630355 -43.206909 39.304081 -38.571448 9.237722 -36.433773 54.825293 1.853788 -11.238537 -40.911921 -7.996318 29.316043 4.355496 2.940867 2.386449 0.000000 0.000000 0.000000 37.285770 -36.885166 35.897517 13.099436 -6.567948 3.000561 20.176548 -10.341519 -1.942423 -0.927928 0.890227 -0.952023 0.000000 0.000000 0.000000 3.683876 -10.053329 -2.800932 -12.220880 -0.643483 4.448910 -11.221787 -0.335875 10.654777 0.000000 0.000000 0.000000 7.291729 -10.646037 -3.149541 5.735072 -19.859523 6.143076 2.715709 -13.761823 1.482347 -18.620289 25.336617 -28.212055 0.530116 -18.379190 -0.162965 0.000000 0.000000 0.000000 5.354975 -10.157508 -3.056661 -1.039017 7.805739 20.095921 10.778463 3.294446 11.863708 -9.614594 -8.971840 24.581195 -86.886433 67.210086 87.062700 0.000000 0.000000 0.000000 
-12.368591 73.385963 3.446373 0.000000 0.000000 0.000000 40.401925 -43.807894 39.722987 -52.882791 23.840965 27.550383 37.410619 -19.970688 -1.507653 -11.336406 8.636791 -17.086106 -5.329861 -6.316761 1.662602 0.000000 0.000000 0.000000 38.466901 -42.178395 40.176768 -37.720290 7.513263 -36.966029 53.457954 1.141184 -11.962153 -43.119978 -9.130120 28.093685 4.741241 3.054520 2.974896 0.000000 0.000000 0.000000 37.859090 -35.587656 36.815631 14.042189 -7.744885 2.683433 24.356803 -10.759892 -1.707386 -0.114957 0.177112 -1.247236 0.000000 0.000000 0.000000 8.102808 -10.595773 -2.668047 -10.727041 0.490859 0.648468 -10.977349 -1.711956 10.587385 0.000000 0.000000 0.000000 11.607086 -11.016593 -3.249806 6.193823 -21.289700 5.681541 2.319421 -12.631190 1.139922 -29.658689 11.894356 -25.495872 2.266791 -13.843579 1.452470 0.000000 0.000000 0.000000 10.427184 -10.303928 -2.917665 -0.867475 9.738088 22.549035 10.046792 1.746553 10.822698 -11.538660 -6.478315 21.137530 -65.806441 66.651486 66.226976 0.000000 0.000000 0.000000 
-12.831512 73.692772 4.045643 0.000000 0.000000 0.000000 38.600940 -42.263841 38.745577 -51.370587 25.263823 27.386666 37.376120 -21.331794 -1.029783 -11.578437 8.485203 -19.400302 -5.125475 -6.233024 1.299682 0.000000 0.000000 0.000000 37.117314 -42.028046 39.978972 -36.380384 5.166975 -37.740623 52.678510 0.277428 -11.835552 -44.907206 -9.566432 25.975628 5.422532 3.088180 3.620663 0.000000 0.000000 0.000000 36.876786 -35.400095 36.897003 14.110761 -7.946631 2.279816 28.008905 -9.889895 -1.696335 0.076916 -0.868100 -0.233856 0.000000 0.000000 0.000000 12.355954 -9.783087 -2.467005 -9.665688 1.387696 -3.128259 -8.608039 -2.032237 9.314735 0.000000 0.000000 0.000000 15.338245 -10.098983 -3.251376 6.099816 -22.835202 4.688957 2.689253 -12.023744 0.955687 -39.016462 -3.125223 -27.510300 2.856395 -11.713322 2.248202 0.000000 0.000000 0.000000 14.786776 -9.257071 -2.747522 -0.496641 11.607918 23.185304 9.124077 -0.153419 9.500406 -13.260243 -5.555859 19.083106 -53.792480 65.626069 54.065083 0.000000 0.000000 0.000000 
